<?xml version="1.0" encoding="utf-8"?>
<!-- Generator: Adobe Illustrator 19.2.0, SVG Export Plug-In . SVG Version: 6.00 Build 0)  -->
<svg version="1.1" id="Layer_1" xmlns="http://www.w3.org/2000/svg" xmlns:xlink="http://www.w3.org/1999/xlink" x="0px" y="0px"
	 viewBox="0 0 72 71.9" style="enable-background:new 0 0 72 71.9;" xml:space="preserve">
<style type="text/css">
	.st0{fill:#7B7B7B;}
</style>
<g>
	<path class="st0" d="M70.4,63.9L49,42.5C52.1,38.1,54,32.8,54,27C54,12.1,41.9,0,27,0S0,12.1,0,27c0,14.9,12.1,27,27,27
		c5.8,0,11.2-1.8,15.6-5L64,70.4c2,2,5,2.1,6.8,0.3C72.5,68.9,72.4,65.9,70.4,63.9z M9,27c0-9.9,8.1-18,18-18c9.9,0,18,8.1,18,18
		c0,9.9-8.1,18-18,18C17.1,45,9,36.9,9,27z"/>
</g>
</svg>
