<?xml version="1.0" encoding="utf-8"?>
<!-- Generator: Adobe Illustrator 19.2.0, SVG Export Plug-In . SVG Version: 6.00 Build 0)  -->
<svg version="1.1" baseProfile="tiny" xmlns="http://www.w3.org/2000/svg" xmlns:xlink="http://www.w3.org/1999/xlink" x="0px"
	 y="0px" viewBox="0 0 160 160" xml:space="preserve">
<g id="Calque_3" display="none">
	<g display="inline">
		<g>
			<g>
				<path id="icon-folder" fill="#160101" d="M109.1,53.7c4.5,0,8.2-3.7,8.2-8.2c0-4.5-3.7-8.2-8.2-8.2c-4.5,0-8.2,3.7-8.2,8.2
					C100.9,50,104.6,53.7,109.1,53.7z"/>
				<path id="icon-folder" fill="#160101" d="M117.2,57.1h-15.5c1.2,1.7,2,3.7,2,5.9v22.8c0,3.2-1.6,6.1-4,7.9v15.8c0,2.6,2.1,4.8,4.8,4.8
					c2.3,0,7,0,9.3,0c2.6,0,4.8-2.1,4.8-4.8V87.2c2.7-0.6,4.8-3.1,4.8-6V63.3C123.3,59.9,120.6,57.1,117.2,57.1z"/>
				<path id="icon-folder" fill="#160101" d="M56.1,85.8V63c0-2.2,0.8-4.3,2-5.9H42.8c-3.4,0-6.2,2.8-6.2,6.2v17.9c0,2.9,2.1,5.4,4.8,6v22.2
					c0,2.6,2.1,4.8,4.8,4.8c2.3,0,7,0,9.3,0c2.6,0,4.8-2.1,4.8-4.8V93.9C57.8,92.1,56.1,89.1,56.1,85.8z"/>
				<path id="icon-folder" fill="#160101" d="M50.9,53.7c4.5,0,8.2-3.7,8.2-8.2c0-4.5-3.7-8.2-8.2-8.2c-4.5,0-8.2,3.7-8.2,8.2
					C42.7,50,46.4,53.7,50.9,53.7z"/>
				<path id="icon-folder" fill="#160101" d="M91.8,92h2c3.4,0,6.2-2.8,6.2-6.2V63c0-3.4-2.8-6.2-6.2-6.2H86H73.7H66c-3.4,0-6.2,2.8-6.2,6.2v22.8
					c0,3.4,2.8,6.2,6.2,6.2h2v3.7v25.7c0,3.4,2.8,6.2,6.2,6.2c2.6,0,8.9,0,11.5,0c3.4,0,6.2-2.8,6.2-6.2V95.7V92z"/>
				<path id="icon-folder" fill="#160101" d="M82.9,52.1c4.1-1.3,7.1-5.1,7.1-9.6c0-5.6-4.5-10.1-10.1-10.1c-5.6,0-10.1,4.5-10.1,10.1
					c0,4.5,3,8.3,7.1,9.6c1,0.3,2,0.5,3,0.5C80.9,52.6,81.9,52.4,82.9,52.1z"/>
			</g>
		</g>
	</g>
</g>
<g id="Layer_2">
	<circle id="icon-folder-stroke" fill="none" stroke="#578575" stroke-width="6" stroke-miterlimit="10" cx="80" cy="80" r="77"/>
	<g>
		<path id="icon-folder" fill="#578575" d="M32.8,78.4c-1.1-4.3,1.7-7.9,6.2-7.9h82c4.5,0,7.3,3.6,6.3,7.9l-10.9,38.8H42.2L32.8,78.4z"/>
		<g>
			<path id="icon-folder" fill="#578575" d="M120.5,59.2c0-4.5-3.7-8.1-8.1-8.1H70.7v-3.7c0-2.5-2.1-4.6-4.6-4.6H45c-2.5,0-4.6,2.1-4.6,4.6v11.8v5.6
				h80.1V59.2z"/>
		</g>
	</g>
</g>
</svg>
