<?xml version="1.0" encoding="utf-8"?>
<!-- Generator: Adobe Illustrator 19.2.0, SVG Export Plug-In . SVG Version: 6.00 Build 0)  -->
<svg version="1.1" baseProfile="tiny" xmlns="http://www.w3.org/2000/svg" xmlns:xlink="http://www.w3.org/1999/xlink" x="0px"
	 y="0px" viewBox="0 0 160 160" xml:space="preserve">
<g id="Calque_3" display="none">
	<g display="inline">
		<g>
			<g>
				<path id="icon-paper" fill="#160101" d="M109.1,53.7c4.5,0,8.2-3.7,8.2-8.2c0-4.5-3.7-8.2-8.2-8.2c-4.5,0-8.2,3.7-8.2,8.2
					C100.9,50,104.6,53.7,109.1,53.7z"/>
				<path id="icon-paper" fill="#160101" d="M117.2,57.1h-15.5c1.2,1.7,2,3.7,2,5.9v22.8c0,3.2-1.6,6.1-4,7.9v15.8c0,2.6,2.1,4.8,4.8,4.8
					c2.3,0,7,0,9.3,0c2.6,0,4.8-2.1,4.8-4.8V87.2c2.7-0.6,4.8-3.1,4.8-6V63.3C123.3,59.9,120.6,57.1,117.2,57.1z"/>
				<path id="icon-paper" fill="#160101" d="M56.1,85.8V63c0-2.2,0.8-4.3,2-5.9H42.8c-3.4,0-6.2,2.8-6.2,6.2v17.9c0,2.9,2.1,5.4,4.8,6v22.2
					c0,2.6,2.1,4.8,4.8,4.8c2.3,0,7,0,9.3,0c2.6,0,4.8-2.1,4.8-4.8V93.9C57.8,92.1,56.1,89.1,56.1,85.8z"/>
				<path id="icon-paper" fill="#160101" d="M50.9,53.7c4.5,0,8.2-3.7,8.2-8.2c0-4.5-3.7-8.2-8.2-8.2c-4.5,0-8.2,3.7-8.2,8.2
					C42.7,50,46.4,53.7,50.9,53.7z"/>
				<path id="icon-paper" fill="#160101" d="M91.8,92h2c3.4,0,6.2-2.8,6.2-6.2V63c0-3.4-2.8-6.2-6.2-6.2H86H73.7H66c-3.4,0-6.2,2.8-6.2,6.2v22.8
					c0,3.4,2.8,6.2,6.2,6.2h2v3.7v25.7c0,3.4,2.8,6.2,6.2,6.2c2.6,0,8.9,0,11.5,0c3.4,0,6.2-2.8,6.2-6.2V95.7V92z"/>
				<path id="icon-paper" fill="#160101" d="M82.9,52.1c4.1-1.3,7.1-5.1,7.1-9.6c0-5.6-4.5-10.1-10.1-10.1c-5.6,0-10.1,4.5-10.1,10.1
					c0,4.5,3,8.3,7.1,9.6c1,0.3,2,0.5,3,0.5C80.9,52.6,81.9,52.4,82.9,52.1z"/>
			</g>
		</g>
	</g>
</g>
<g id="Layer_2">
	<circle id="icon-paper-stroke" fill="none" stroke="#CC9933" stroke-width="6" stroke-miterlimit="10" cx="80" cy="80" r="77"/>
	<g>
		<g>
			<path id="icon-paper" fill="#CC9933" d="M73.9,67.7h24.5v-6.1H73.9V67.7z M49.4,80h34.8c4-3.2,8.9-5.4,14.2-6v-0.2h-49V80z M49.4,98.4v6.1H74
				c-0.1-1-0.2-2-0.2-3.1c0-1,0.1-2.1,0.2-3.1H49.4z M78.5,86.1H49.4v6.1h26.1C76.2,90.1,77.3,88,78.5,86.1z M108.8,38.9
				c-1.2-1.2-2.8-1.8-4.3-1.8H66.2c-3.9,0-7.7,1.6-10.5,4.3L41.5,55.8c-2.8,2.8-4.3,6.5-4.3,10.5v50.5c0,1.6,0.6,3.1,1.8,4.3
				c1.2,1.2,2.8,1.8,4.3,1.8h40.9c-2.2-1.7-4.1-3.8-5.6-6.1H43.2v-51c0-1.7,1.4-4.1,3.1-4.1h9.2c3.4,0,6.1-2.7,6.1-6.1v-9.2
				c0-1.7,2.4-3.1,4.1-3.1h38.8v30.8c2.1,0.2,4.2,0.7,6.1,1.4V43.2C110.6,41.7,110,40.1,108.8,38.9z"/>
			<path id="icon-paper" fill="#CC9933" d="M120.3,91.3l-16.9,20.9c-0.7,0.9-1.8,1.4-2.9,1.4c0,0-0.1,0-0.1,0c-1.1,0-2.1-0.5-2.9-1.3l-9.8-11.1h0
				l5.7-5.1l6.8,7.7l15.1-18.7c-3.8-3.2-8.7-5.2-14-5.2C89.6,80,80,89.6,80,101.4c0,11.8,9.6,21.4,21.4,21.4s21.4-9.6,21.4-21.4
				C122.9,97.8,122,94.3,120.3,91.3z"/>
		</g>
	</g>
</g>
</svg>
