<?xml version="1.0" encoding="utf-8"?>
<!-- Generator: Adobe Illustrator 19.2.0, SVG Export Plug-In . SVG Version: 6.00 Build 0)  -->
<svg version="1.1" id="Layer_1" xmlns="http://www.w3.org/2000/svg" xmlns:xlink="http://www.w3.org/1999/xlink" x="0px" y="0px"
	 viewBox="0 0 432.9 142.6" style="enable-background:new 0 0 432.9 142.6;" xml:space="preserve">
<style type="text/css">
	.st0{fill:#DCDDDE;}
	.st1{fill:#2F3C6A;}
</style>
<g>
	<polygon class="st0" points="220.4,0 220.4,29.8 330.5,29.8 352.7,0 220.4,0 	"/>
	<polygon class="st0" points="220.4,37.6 220.4,67.4 301.4,67.4 324,37.6 220.4,37.6 	"/>
	<polygon class="st0" points="220.4,74.9 220.4,105 324,105 301.4,74.9 220.4,74.9 	"/>
	<polygon class="st0" points="220.4,112.8 220.4,142.6 352.7,142.6 330.5,112.8 220.4,112.8 	"/>
	<path class="st0" d="M212.3,37.6h-47.7c-18.2,0-32.3,15.2-32.4,33.4c-0.1,18.3,14.1,34,32.4,34h47.7V74.9h-47.7
		c-2.1,0-3.9-1.7-3.9-3.9c0-2.1,1.8-3.6,3.9-3.6h47.7V37.6L212.3,37.6z"/>
	<path class="st0" d="M212.3,29.5V0h-47.7c-38.9,0-69.9,32.1-70,71c-0.1,38,28.2,71.5,66.1,71.5h51.5v-29.7h-47.7
		c-23,0-41.5-18.8-41.5-41.8c0-22.9,18.6-41.5,41.5-41.5H212.3L212.3,29.5z"/>
	<g>
		<path class="st1" d="M21.6,64.7c-0.2,0.4-0.9,0.4-1.1,0.1c-0.6-2.9-2.2-6.8-6.8-6.8c-4.4,0-8.9,4.2-8.9,13.8
			c0,9.9,4.7,14.8,9.2,14.8c4.4,0,6.3-3.9,7.3-7c0.3-0.4,0.9-0.2,1.1,0.2c-0.2,3.1-1.2,6.2-1.7,7.1c-0.4,0.1-0.8,0.3-1.2,0.4
			c-0.8,0.3-3.2,1.1-5.5,1.1c-3.5,0-6.4-0.9-9-3.1c-2.8-2.5-5-6.7-5-12.8c0-5.5,1.8-9.7,4.4-12.4c2.6-2.6,6.1-4,9.7-4
			c2,0,4.4,0.5,6.1,1c0.4,0.1,0.7,0.2,1,0.3C21.2,58.5,21.3,61.2,21.6,64.7z"/>
		<path class="st1" d="M38,63.8c0-4.5,0-5-1.7-5.3l-0.9-0.1c-0.2-0.3-0.2-1.1,0-1.3c2.2-0.3,5.2-0.4,8.1-0.4c2.7,0,5.1,0.5,6.7,1.6
			c1.8,1.3,3.1,3.5,3.1,6.8c0,4.3-2.5,6.4-4.2,7.4c-0.2,0.1-0.1,0.5,0,0.8c2.8,6.3,4.6,10.3,6.2,12.1c1,1.1,2,1.4,2.4,1.4
			c0.2,0.2,0.2,0.7,0.1,0.9c-0.4,0.1-1.1,0.3-2.3,0.3c-3.4,0-5.2-1.8-7.3-6.2c-0.9-2-1.9-4.5-2.8-6.3c-0.6-1.4-1-1.6-2.2-1.6
			c-1.1,0-1.1,0-1.1,1v6c0,4.9,0.3,5.1,2,5.4l0.8,0.1c0.2,0.3,0.2,1.2-0.1,1.4c-1.5-0.1-3.1-0.1-4.7-0.1c-1.5,0-3.1,0-4.7,0.1
			c-0.3-0.2-0.4-1-0.1-1.4l0.8-0.1c1.6-0.3,2-0.4,2-5.4V63.8z M42,70.6c0,1.5,0,1.6,1.7,1.6c3.4,0,5-2.2,5-6.7
			c0-3.7-1.8-6.9-4.8-6.9c-1.8,0-1.9,0.1-1.9,2.3V70.6z"/>
		<path class="st1" d="M75,76.2c-0.9,0-0.9,0-1.2,1.3l-1.4,5.6c-0.7,2.8-0.6,2.9,0.7,3.1l1,0.2c0.2,0.3,0.2,1.2-0.1,1.4
			c-1.1-0.1-2.3-0.1-3.7-0.1c-1.2,0-2.2,0-3.5,0.1c-0.2-0.2-0.3-0.9,0-1.4l1.1-0.2c1-0.2,1.4-0.6,1.9-2.1c0.4-1.2,1-3.2,1.7-5.7
			l4.8-16.6c0.5-1.5,0.8-2.6,0.7-3.4c1.2-0.3,2.4-2.2,2.5-2.2c0.3,0,0.5,0.1,0.6,0.4c0.6,2.1,1,4.3,1.6,6.4l5,19.6
			c0.8,3.1,1,3.5,2.8,3.9l0.5,0.1c0.3,0.3,0.3,1.1,0,1.4c-1.4-0.1-2.7-0.1-4.6-0.1c-1.5,0-3,0.1-4.3,0.1c-0.3-0.2-0.3-1.1-0.1-1.4
			l0.8-0.1c1.3-0.2,1.4-0.5,0.9-2.5l-1.6-6.3c-0.4-1.3-0.5-1.3-1.4-1.3H75z M79.2,74.1c1,0,1.1-0.1,0.8-1.2l-1.5-5.6
			c-0.6-2.5-0.8-3.4-1-3.7h-0.1c-0.1,0.3-0.4,1.5-1.1,3.7L75,72.8c-0.4,1.4-0.3,1.4,0.6,1.4H79.2z"/>
	</g>
	<g>
		<path class="st1" d="M106.1,78.2c0-2.6-0.1-3.3-1.1-5.8l-4.2-11.1c-0.8-2-1.1-2.6-2.6-3l-0.9-0.3c-0.2-0.3-0.1-1.2,0.1-1.4
			c1.5,0.1,3,0.1,4.4,0.1c1.5,0,3.7,0,4.5-0.1c0.3,0.2,0.4,1,0.1,1.4l-1.1,0.2c-0.6,0.1-0.7,0.2-0.7,0.6c0,0.4,0.1,0.9,0.6,2.4
			c1.4,4,2.7,7.8,4.1,11.2c1.4-3.5,2.7-6.8,4.1-10.3c0.6-1.6,0.9-2.6,0.9-3.1c0-0.5-0.3-0.6-0.8-0.7l-1.1-0.3
			c-0.2-0.3-0.2-1.1,0.1-1.4c1.5,0.1,2.6,0.1,3.7,0.1c1.1,0,2.2,0,3.3-0.1c0.3,0.2,0.3,1,0.1,1.4l-1,0.3c-1.6,0.4-2,1.3-3.8,5.4
			c-1.2,2.7-2.2,5.2-3.3,7.8c-1.1,2.4-1.3,3.4-1.3,6.6v2.8c0,4.9,0.3,5.1,2,5.3l1.3,0.2c0.2,0.3,0.2,1.2-0.1,1.4
			c-2.2-0.1-3.7-0.1-5.3-0.1c-1.6,0-3.2,0-5.1,0.1c-0.3-0.2-0.3-1-0.1-1.4l1.1-0.2c1.6-0.2,2-0.4,2-5.3V78.2z"/>
		<path class="st1" d="M118.4,93.4c-0.5-0.2-0.6-0.8-0.4-1.4c1.2-0.5,3-1.7,3-4.2c0-2.1-1.7-2.6-2-2.8c-0.5-0.3-0.8-0.9-0.8-1.7
			c0-1.4,0.8-2.5,2.2-2.5c1.3,0,2.9,1.6,2.9,5.1C123.3,90,121,92.4,118.4,93.4z"/>
	</g>
	<g>
		<path class="st1" d="M150.9,68.7c0,1.3,0,2.1,0.6,2.1c0.7,0,1.5-1.1,2.6-2.8l3.6-5.1c0.5-0.6,1.5-2.1,1.9-2.9
			c0.6-1.1,0.7-1.4,0.2-1.6l-1.1-0.4c-0.3-0.3-0.2-1,0.1-1.4c1.5,0.1,2.6,0.1,3.9,0.1c1.5,0,2.6-0.1,3.9-0.1
			c0.4,0.1,0.5,1.1,0.1,1.4c-3.3,0.6-4.2,1.7-6.6,4.9c-1.5,2-2.9,3.9-4.3,5.7c-0.4,0.6-0.5,0.8-0.1,1.5c2.8,4.9,6.1,10.4,8.6,14.3
			c0.7,1.2,1.5,1.6,2.6,1.8l0.8,0.1c0.2,0.2,0.2,1.2-0.1,1.4c-1.2-0.1-2.6-0.1-4.5-0.1c-1.7,0-3.3,0-4.8,0.1
			c-0.4-0.2-0.4-1.1-0.1-1.4l0.9-0.2c0.6-0.1,0.6-0.6,0.2-1.3c-1.5-2.4-5.6-10-6.9-11.8c-0.2-0.3-0.5-0.7-0.8-0.7
			c-0.9,0-0.8,1.1-0.8,2.5v5.9c0,4.9,0.3,5.1,2,5.4l0.9,0.1c0.2,0.2,0.2,1.2-0.1,1.4c-1.6-0.1-3.2-0.1-4.8-0.1c-1.5,0-3.2,0-4.4,0.1
			c-0.3-0.2-0.3-1.1-0.1-1.4l0.5-0.1c1.6-0.3,2-0.5,2-5.4V63.6c0-4.9-0.3-5.1-2-5.4l-0.7-0.1c-0.2-0.3-0.2-1.2,0.1-1.4
			c1.4,0.1,3,0.1,4.6,0.1c1.5,0,3.1,0,4.5-0.1c0.3,0.2,0.3,1.1,0.1,1.4l-0.6,0.1c-1.6,0.3-2,0.4-2,5.4V68.7z"/>
		<path class="st1" d="M185.3,76.2c-0.9,0-0.9,0-1.2,1.3l-1.4,5.6c-0.7,2.8-0.6,2.9,0.7,3.1l1,0.2c0.2,0.3,0.2,1.2-0.1,1.4
			c-1.1-0.1-2.3-0.1-3.7-0.1c-1.2,0-2.2,0-3.5,0.1c-0.2-0.2-0.3-0.9,0-1.4l1.1-0.2c1-0.2,1.4-0.6,1.9-2.1c0.4-1.2,1-3.2,1.7-5.7
			l4.8-16.6c0.5-1.5,0.8-2.6,0.7-3.4c1.2-0.3,2.4-2.2,2.5-2.2c0.3,0,0.5,0.1,0.6,0.4c0.6,2.1,1,4.3,1.6,6.4l5,19.6
			c0.8,3.1,1,3.5,2.8,3.9l0.5,0.1c0.3,0.3,0.3,1.1,0,1.4c-1.4-0.1-2.7-0.1-4.6-0.1c-1.5,0-3,0.1-4.3,0.1c-0.3-0.2-0.3-1.1-0.1-1.4
			l0.8-0.1c1.3-0.2,1.4-0.5,0.9-2.5l-1.6-6.3c-0.4-1.3-0.5-1.3-1.4-1.3H185.3z M189.5,74.1c1,0,1.1-0.1,0.8-1.2l-1.5-5.6
			c-0.6-2.5-0.8-3.4-1-3.7h-0.1c-0.1,0.3-0.4,1.5-1.1,3.7l-1.5,5.5c-0.4,1.4-0.3,1.4,0.6,1.4H189.5z"/>
	</g>
	<g>
		<path class="st1" d="M219.2,80.9c0,4.9,0.3,5.1,2,5.4l0.8,0.1c0.2,0.3,0.2,1.2-0.1,1.4c-1.5-0.1-3.1-0.1-4.7-0.1
			c-1.5,0-3.2,0-4.7,0.1c-0.3-0.2-0.3-1-0.1-1.4l0.8-0.1c1.6-0.3,2-0.4,2-5.4V63.6c0-4.9-0.3-5.1-2-5.4l-0.8-0.1
			c-0.2-0.3-0.2-1.2,0.1-1.4c1.5,0.1,3.1,0.1,4.7,0.1c1.5,0,3.1,0,4.7-0.1c0.3,0.2,0.3,1,0.1,1.4l-0.8,0.1c-1.6,0.3-2,0.4-2,5.4
			V80.9z"/>
		<path class="st1" d="M237.5,86.4c-0.6-1-1.1-4.2-1-7.1c0.2-0.5,0.8-0.5,1.1-0.2c0.6,2.4,2.5,7.4,6,7.4c2.7,0,4.2-2.1,4.2-5
			c0-2.7-0.9-4.8-3.6-6.8l-1.5-1.1c-2.6-2-4.9-4.8-4.9-9c0-4.6,2.6-8.5,7.7-8.5c1.8,0,3.2,0.6,4.8,1c0.4,1,0.7,4.1,0.7,6.3
			c-0.2,0.4-0.8,0.5-1.1,0.1c-0.5-2.4-1.8-5.6-4.7-5.6c-2.8,0-4,2.4-4,4.9c0,2,1,4.1,3.3,5.7l2.2,1.5c2.3,1.6,4.8,4.5,4.8,9.2
			c0,5.3-3,9.1-8.1,9.1C240.1,88.4,238.2,87,237.5,86.4z"/>
		<path class="st1" d="M268.9,63.6c0-4.9-0.3-5.1-2-5.4l-0.6-0.1c-0.2-0.3-0.2-1.2,0.1-1.4c1.3,0.1,3,0.1,4.5,0.1h6.7
			c2.2,0,4.3,0,4.7-0.1c0.1,0.8,0.4,4.5,0.6,6.5c-0.1,0.4-0.8,0.5-1.1,0.2c-0.6-2.7-1.1-3.9-2.2-4.2c-0.8-0.3-1.9-0.4-2.8-0.4h-2.3
			c-1.5,0-1.5,0.1-1.5,2.8v7.9c0,1.2,0,1.3,0.8,1.3h1.7c3,0,3.6,0,3.9-2.1l0.2-1.6c0.3-0.3,0.9-0.3,1.1,0c0,1.3-0.1,2.9-0.1,4.7
			c0,1.8,0.1,3.4,0.1,4.9c-0.2,0.3-0.8,0.3-1.1,0l-0.2-1.9c-0.2-2-0.8-2.1-3.9-2.1h-1.7c-0.8,0-0.8,0.1-0.8,1.3v5.9
			c0,2.4,0.1,4.1,0.6,4.9c0.4,0.7,1,1,4,1c4.4,0.1,5.2-1.3,6.4-5c0.3-0.3,0.9-0.2,1.1,0.3c-0.2,2-1,5.5-1.5,6.8
			c-1.5-0.1-4.6-0.1-8.6-0.1h-4c-1.5,0-3.7,0-5.3,0.1c-0.3-0.2-0.3-1-0.1-1.4l1.3-0.2c1.6-0.2,2-0.4,2-5.3V63.6z"/>
		<path class="st1" d="M301.1,63.8c0-4.5,0-5-1.7-5.3l-0.9-0.1c-0.2-0.3-0.2-1.1,0-1.3c2.2-0.3,5.2-0.4,8.1-0.4
			c2.7,0,5.1,0.5,6.7,1.6c1.8,1.3,3.1,3.5,3.1,6.8c0,4.3-2.5,6.4-4.2,7.4c-0.2,0.1-0.1,0.5,0,0.8c2.8,6.3,4.6,10.3,6.2,12.1
			c1,1.1,2,1.4,2.4,1.4c0.2,0.2,0.2,0.7,0.1,0.9c-0.4,0.1-1.1,0.3-2.3,0.3c-3.4,0-5.2-1.8-7.3-6.2c-0.9-2-1.9-4.5-2.8-6.3
			c-0.6-1.4-1-1.6-2.2-1.6c-1.1,0-1.1,0-1.1,1v6c0,4.9,0.3,5.1,2,5.4l0.8,0.1c0.2,0.3,0.2,1.2-0.1,1.4c-1.5-0.1-3.1-0.1-4.7-0.1
			c-1.5,0-3.1,0-4.7,0.1c-0.3-0.2-0.4-1-0.1-1.4l0.8-0.1c1.6-0.3,2-0.4,2-5.4V63.8z M305.1,70.6c0,1.5,0,1.6,1.7,1.6
			c3.4,0,5-2.2,5-6.7c0-3.7-1.8-6.9-4.8-6.9c-1.8,0-1.9,0.1-1.9,2.3V70.6z"/>
	</g>
	<g>
		<path class="st1" d="M347.3,80c0,2.3,0.1,4,0.6,4.8c0.4,0.7,1,1,3.8,1c3.9,0,4.4-0.2,6.1-5c0.4-0.2,0.9-0.1,1.1,0.3
			c-0.3,2-1.1,5.5-1.5,6.8c-1.5-0.1-4.5-0.1-8.4-0.1h-3.6c-1.8,0-3.5,0-5,0.1c-0.3-0.2-0.4-1.1-0.1-1.4l1.1-0.2c1.6-0.3,2-0.4,2-5.3
			V63.6c0-4.9-0.3-5-2-5.3l-1-0.2c-0.2-0.2-0.2-1.2,0.1-1.4c1.8,0.1,3.3,0.1,4.9,0.1c1.5,0,3.1,0,4.7-0.1c0.3,0.2,0.3,1.1,0.1,1.4
			l-0.8,0.2c-1.6,0.3-2,0.5-2,5.3V80z"/>
		<path class="st1" d="M375,60.8c0-2,0-2.1-0.9-2.1h-2c-3.2,0-4.2,0.5-5.5,4.3c-0.2,0.3-1,0.1-1.1-0.3c0.6-2.5,1.1-5.4,1.4-7
			c0.1-0.1,0.2-0.2,0.4-0.2c0.1,0,0.3,0,0.4,0.2c0.2,1.2,0.7,1.2,3,1.2H385c1.7,0,2.2-0.1,2.7-1.2c0.1-0.1,0.3-0.2,0.4-0.2
			c0.2,0,0.4,0.1,0.5,0.2c-0.3,1.9-0.6,5.9-0.5,7.4c-0.2,0.4-0.8,0.5-1.1,0.1c-0.5-3.6-1.1-4.5-4.9-4.5h-2c-0.9,0-0.9,0.1-0.9,2.1
			v20.2c0,4.9,0.3,5.1,2,5.3l1.3,0.2c0.2,0.3,0.2,1.2-0.1,1.4c-2-0.1-3.6-0.1-5.1-0.1c-1.5,0-3.2,0-5.4,0.1
			c-0.3-0.2-0.3-1.1-0.1-1.4l1.5-0.2c1.6-0.2,2-0.3,2-5.3V60.8z"/>
	</g>
	<g>
		<path class="st1" d="M400.3,63.8c0-4.5,0-5-1.7-5.3l-0.7-0.1c-0.2-0.2-0.2-1.1,0-1.3c2.5-0.3,5.3-0.4,8.8-0.4
			c3.3,0,5.7,0.4,8.3,1.6c4.2,2.1,7.2,7,7.2,14c0,5.2-1.9,10.5-6.3,13.4c-2.5,1.7-5.5,2.2-8.7,2.2c-2.1,0-3.8-0.3-5.1-0.3
			c-1.3,0-2.9,0-4.4,0.1c-0.3-0.2-0.3-1-0.1-1.4l0.8-0.1c1.6-0.3,2-0.4,2-5.4V63.8z M404.3,79.1c0,4.5,0.2,7,4,7c6.2,0,9-5.9,9-13.8
			c0-9.2-4-13.7-9.9-13.7c-1.5,0-2.6,0.4-2.8,0.7c-0.2,0.3-0.3,1.3-0.3,3.5V79.1z"/>
		<path class="st1" d="M428.3,85.2c0-1.7,1-3.1,2.3-3.1c1.3,0,2.3,1.4,2.3,3.1c0,1.7-1,3.1-2.3,3.1C429.3,88.3,428.3,87,428.3,85.2z
			"/>
	</g>
</g>
</svg>
